<?xml version="1.0" encoding="utf-8"?>
<!-- Generator: Adobe Illustrator 26.2.1, SVG Export Plug-In . SVG Version: 6.00 Build 0)  -->
<svg version="1.1" id="Слой_1" xmlns="http://www.w3.org/2000/svg" xmlns:xlink="http://www.w3.org/1999/xlink" x="0px" y="0px"
	 viewBox="0 0 170.08 170.08" style="enable-background:new 0 0 170.08 170.08;" xml:space="preserve">
<style type="text/css">
	.st0{fill:#014EA2;}
</style>
<g>
	<g>
		<g>
			<path class="st0" d="M63.73,117.68v-10.55h2.23l3.1,6.34l3.1-6.34h2.21v10.55h-2.21v-6.87l-2.46,5.05h-1.28l-2.47-5.05v6.87
				H63.73z"/>
			<path class="st0" d="M81.1,117.85c-1.34,0-2.41-0.34-3.2-1.01c-0.79-0.67-1.18-1.69-1.18-3.06c0-1.23,0.33-2.21,0.99-2.94
				c0.66-0.73,1.65-1.09,2.96-1.09c1.2,0,2.12,0.31,2.76,0.94c0.64,0.63,0.96,1.45,0.96,2.47v1.41h-5.62
				c0.12,0.62,0.41,1.05,0.86,1.28s1.1,0.34,1.93,0.34c0.42,0,0.84-0.04,1.27-0.11c0.43-0.08,0.8-0.17,1.11-0.3v1.57
				c-0.36,0.16-0.78,0.29-1.26,0.37C82.19,117.81,81.67,117.85,81.1,117.85z M78.77,113.21h3.69v-0.43c0-0.45-0.13-0.8-0.39-1.06
				c-0.26-0.26-0.7-0.39-1.33-0.39c-0.73,0-1.24,0.15-1.53,0.44C78.92,112.08,78.77,112.55,78.77,113.21z"/>
			<path class="st0" d="M89.83,117.85c-0.9,0-1.56-0.24-1.99-0.7c-0.43-0.47-0.65-1.11-0.65-1.92v-3.61h-1.1v-1.7h1.1v-1.67
				l2.21-0.66v2.33h1.97l-0.13,1.7h-1.84v3.46c0,0.43,0.1,0.72,0.29,0.88c0.2,0.16,0.5,0.24,0.92,0.24c0.31,0,0.62-0.05,0.95-0.16
				v1.52c-0.24,0.1-0.5,0.17-0.79,0.22C90.5,117.82,90.18,117.85,89.83,117.85z"/>
			<path class="st0" d="M95.96,117.85c-0.49,0-0.95-0.09-1.37-0.27c-0.42-0.18-0.76-0.45-1.02-0.8c-0.26-0.35-0.39-0.8-0.39-1.34
				c0-0.76,0.27-1.38,0.81-1.84c0.54-0.46,1.34-0.69,2.4-0.69h2.29v-0.21c0-0.48-0.13-0.82-0.4-1.02c-0.27-0.2-0.81-0.29-1.61-0.29
				c-0.89,0-1.74,0.14-2.56,0.41v-1.56c0.36-0.14,0.8-0.26,1.32-0.35c0.52-0.09,1.08-0.14,1.7-0.14c1.17,0,2.07,0.24,2.71,0.71
				c0.64,0.48,0.96,1.24,0.96,2.29v4.93H98.9l-0.11-0.7c-0.31,0.27-0.68,0.49-1.13,0.64C97.2,117.77,96.64,117.85,95.96,117.85z
				 M96.57,116.39c0.49,0,0.92-0.08,1.28-0.25c0.36-0.16,0.64-0.37,0.85-0.62v-1.23h-2.24c-0.86,0-1.3,0.36-1.3,1.07
				C95.16,116.05,95.63,116.39,96.57,116.39z"/>
			<path class="st0" d="M105.58,117.85c-0.75,0-1.3-0.17-1.65-0.52c-0.34-0.35-0.52-0.91-0.52-1.67v-9.01h2.21v8.83
				c0,0.27,0.05,0.46,0.16,0.57c0.11,0.1,0.27,0.16,0.48,0.16c0.28,0,0.54-0.04,0.77-0.11v1.52
				C106.63,117.77,106.14,117.85,105.58,117.85z"/>
			<path class="st0" d="M20.6,136.8v-10.55h2.23l3.1,6.34l3.1-6.34h2.21v10.55h-2.21v-6.87l-2.46,5.05h-1.28l-2.47-5.05v6.87H20.6z"
				/>
			<path class="st0" d="M36.36,136.97c-0.49,0-0.95-0.09-1.37-0.27c-0.42-0.18-0.76-0.45-1.02-0.8c-0.26-0.35-0.39-0.8-0.39-1.34
				c0-0.76,0.27-1.38,0.81-1.84c0.54-0.46,1.34-0.69,2.4-0.69h2.29v-0.21c0-0.48-0.13-0.82-0.4-1.02c-0.27-0.2-0.81-0.29-1.61-0.29
				c-0.89,0-1.74,0.14-2.56,0.41v-1.56c0.36-0.14,0.8-0.26,1.32-0.35c0.52-0.09,1.08-0.14,1.7-0.14c1.17,0,2.07,0.24,2.71,0.71
				c0.64,0.48,0.96,1.24,0.96,2.29v4.93H39.3l-0.11-0.7c-0.31,0.27-0.68,0.49-1.13,0.64C37.6,136.89,37.04,136.97,36.36,136.97z
				 M36.97,135.51c0.49,0,0.92-0.08,1.28-0.25c0.36-0.16,0.64-0.37,0.85-0.62v-1.23h-2.25c-0.86,0-1.29,0.36-1.29,1.06
				C35.56,135.17,36.03,135.51,36.97,135.51z"/>
			<path class="st0" d="M43.82,136.8v-7.77h2.05l0.1,0.8c0.35-0.22,0.78-0.42,1.3-0.6s1.03-0.3,1.53-0.37v1.67
				c-0.3,0.04-0.62,0.11-0.97,0.2c-0.35,0.09-0.68,0.19-1,0.29c-0.32,0.11-0.58,0.22-0.8,0.34v5.42H43.82z"/>
			<path class="st0" d="M50.75,136.8v-11.05h2.21v6.08l2.9-2.8h2.52l-3.13,3.18l3.31,4.59h-2.34l-2.36-3.43l-0.9,0.87v2.56H50.75z"
				/>
			<path class="st0" d="M63.8,136.97c-1.34,0-2.41-0.34-3.2-1.01c-0.79-0.67-1.18-1.69-1.18-3.06c0-1.23,0.33-2.21,0.99-2.94
				c0.66-0.73,1.65-1.09,2.96-1.09c1.2,0,2.12,0.31,2.76,0.94c0.64,0.63,0.96,1.45,0.96,2.47v1.41h-5.62
				c0.12,0.62,0.41,1.05,0.86,1.28c0.45,0.23,1.1,0.34,1.93,0.34c0.42,0,0.84-0.04,1.27-0.11c0.43-0.08,0.8-0.17,1.11-0.3v1.57
				c-0.36,0.16-0.78,0.29-1.26,0.37C64.89,136.93,64.37,136.97,63.8,136.97z M61.47,132.33h3.69v-0.43c0-0.45-0.13-0.8-0.39-1.06
				c-0.26-0.26-0.7-0.39-1.33-0.39c-0.73,0-1.24,0.15-1.53,0.44C61.62,131.2,61.47,131.67,61.47,132.33z"/>
			<path class="st0" d="M72.53,136.97c-0.9,0-1.56-0.24-1.99-0.7c-0.43-0.47-0.65-1.11-0.65-1.92v-3.61h-1.1v-1.7h1.1v-1.67
				l2.21-0.66v2.33h1.97l-0.13,1.7h-1.84v3.46c0,0.43,0.1,0.72,0.3,0.88c0.2,0.16,0.5,0.24,0.92,0.24c0.31,0,0.62-0.05,0.95-0.16
				v1.52c-0.24,0.1-0.5,0.17-0.79,0.22C73.2,136.94,72.88,136.97,72.53,136.97z"/>
			<path class="st0" d="M80.65,136.8v-10.55h4.95c0.83,0,1.51,0.16,2.04,0.48c0.53,0.32,0.93,0.75,1.19,1.29
				c0.26,0.55,0.39,1.17,0.39,1.87c0,0.71-0.15,1.34-0.45,1.88c-0.3,0.55-0.73,0.97-1.28,1.27c-0.55,0.3-1.2,0.45-1.96,0.45h-2.67
				v3.31H80.65z M82.86,131.74h2.21c0.63,0,1.11-0.17,1.43-0.5c0.32-0.33,0.48-0.78,0.48-1.35c0-0.61-0.15-1.08-0.46-1.4
				c-0.31-0.32-0.76-0.48-1.38-0.48h-2.29V131.74z"/>
			<path class="st0" d="M93.43,136.97c-0.75,0-1.3-0.17-1.65-0.52c-0.34-0.35-0.52-0.91-0.52-1.67v-9.01h2.21v8.83
				c0,0.27,0.05,0.46,0.16,0.57c0.11,0.1,0.27,0.16,0.48,0.16c0.28,0,0.54-0.04,0.77-0.11v1.52
				C94.47,136.89,93.99,136.97,93.43,136.97z"/>
			<path class="st0" d="M99.41,136.97c-0.49,0-0.95-0.09-1.37-0.27c-0.42-0.18-0.76-0.45-1.02-0.8c-0.26-0.35-0.39-0.8-0.39-1.34
				c0-0.76,0.27-1.38,0.81-1.84c0.54-0.46,1.34-0.69,2.4-0.69h2.29v-0.21c0-0.48-0.13-0.82-0.4-1.02c-0.27-0.2-0.81-0.29-1.61-0.29
				c-0.88,0-1.74,0.14-2.56,0.41v-1.56c0.36-0.14,0.8-0.26,1.32-0.35c0.52-0.09,1.08-0.14,1.7-0.14c1.17,0,2.07,0.24,2.71,0.71
				c0.64,0.48,0.96,1.24,0.96,2.29v4.93h-1.92l-0.11-0.7c-0.31,0.27-0.68,0.49-1.13,0.64C100.65,136.89,100.09,136.97,99.41,136.97z
				 M100.02,135.51c0.49,0,0.92-0.08,1.28-0.25c0.36-0.16,0.64-0.37,0.85-0.62v-1.23H99.9c-0.86,0-1.3,0.36-1.3,1.06
				C98.61,135.17,99.08,135.51,100.02,135.51z"/>
			<path class="st0" d="M109.95,136.97c-0.9,0-1.56-0.24-1.99-0.7c-0.43-0.47-0.65-1.11-0.65-1.92v-3.61h-1.1v-1.7h1.1v-1.67
				l2.21-0.66v2.33h1.97l-0.13,1.7h-1.84v3.46c0,0.43,0.1,0.72,0.29,0.88c0.2,0.16,0.5,0.24,0.92,0.24c0.31,0,0.62-0.05,0.95-0.16
				v1.52c-0.24,0.1-0.5,0.17-0.79,0.22C110.62,136.94,110.3,136.97,109.95,136.97z"/>
			<path class="st0" d="M114.05,136.8v-6.06h-1.08v-1.7h1.08v-0.79c0-0.81,0.23-1.47,0.69-1.98c0.46-0.51,1.14-0.77,2.03-0.77
				c0.36,0,0.68,0.03,0.97,0.08c0.28,0.06,0.55,0.13,0.79,0.23v1.52c-0.16-0.05-0.32-0.1-0.48-0.13c-0.15-0.03-0.32-0.05-0.51-0.05
				c-0.47,0-0.8,0.08-0.99,0.25c-0.19,0.17-0.29,0.46-0.29,0.88v0.75h1.97l-0.1,1.7h-1.87v6.06H114.05z"/>
			<path class="st0" d="M123.85,136.97c-1.45,0-2.52-0.35-3.2-1.06c-0.68-0.7-1.02-1.7-1.02-2.99c0-1.29,0.34-2.29,1.02-2.99
				c0.68-0.7,1.75-1.06,3.19-1.06c1.45,0,2.52,0.35,3.2,1.06c0.68,0.7,1.02,1.7,1.02,2.99c0,1.29-0.34,2.29-1.02,2.99
				C126.38,136.62,125.31,136.97,123.85,136.97z M123.85,135.08c0.71,0,1.22-0.16,1.52-0.48c0.31-0.32,0.46-0.88,0.46-1.68
				c0-0.8-0.15-1.36-0.46-1.68c-0.31-0.32-0.81-0.48-1.52-0.48c-0.7,0-1.2,0.16-1.51,0.48c-0.31,0.32-0.46,0.88-0.46,1.68
				c0,0.8,0.15,1.36,0.46,1.68C122.64,134.92,123.15,135.08,123.85,135.08z"/>
			<path class="st0" d="M130.43,136.8v-7.77h2.05l0.1,0.8c0.35-0.22,0.78-0.42,1.3-0.6c0.52-0.18,1.03-0.3,1.53-0.37v1.67
				c-0.3,0.04-0.62,0.11-0.97,0.2c-0.35,0.09-0.68,0.19-1,0.29c-0.32,0.11-0.58,0.22-0.8,0.34v5.42H130.43z"/>
			<path class="st0" d="M137.37,136.8v-7.77h2.05l0.08,0.75c0.37-0.28,0.78-0.51,1.22-0.67c0.44-0.16,0.92-0.25,1.43-0.25
				c0.55,0,0.97,0.08,1.27,0.25c0.3,0.16,0.53,0.4,0.7,0.7c0.36-0.28,0.77-0.51,1.24-0.69c0.46-0.17,1.01-0.26,1.65-0.26
				c0.9,0,1.56,0.23,1.98,0.7c0.43,0.46,0.64,1.17,0.64,2.12v5.11h-2.18v-4.87c0-0.51-0.11-0.88-0.33-1.11
				c-0.22-0.22-0.57-0.34-1.05-0.34c-0.66,0-1.2,0.24-1.64,0.71c0.05,0.19,0.08,0.41,0.08,0.67v4.93h-2.07v-4.87
				c0-0.48-0.08-0.84-0.25-1.08c-0.16-0.24-0.48-0.36-0.95-0.36c-0.33,0-0.64,0.08-0.93,0.25c-0.29,0.17-0.55,0.36-0.78,0.58v5.47
				H137.37z"/>
		</g>
	</g>
	<g>
		<polygon class="st0" points="100.06,32.72 85.49,57.02 70.91,32.72 41.55,77.76 52.74,96.4 72.14,67.43 68.78,62.45 52.9,85.96 
			48.03,77.84 70.78,43.22 82.38,62.55 85.49,67.74 85.49,67.74 85.49,67.74 88.6,62.55 100.2,43.22 122.95,77.84 118.08,85.96 
			102.2,62.45 98.84,67.43 118.23,96.4 129.43,77.76 		"/>
		<polygon class="st0" points="93.66,75.09 85.49,87.18 77.32,75.09 74.2,80.29 85.49,97.04 85.49,97.04 85.49,97.04 96.78,80.29 		
			"/>
	</g>
</g>
</svg>
